<?xml version="1.0" standalone="no"?><!DOCTYPE svg PUBLIC "-//W3C//DTD SVG 1.1//EN" "http://www.w3.org/Graphics/SVG/1.1/DTD/svg11.dtd"><svg t="1499044222849" class="icon" style="" viewBox="0 0 1144 1024" version="1.1" xmlns="http://www.w3.org/2000/svg" p-id="2653" xmlns:xlink="http://www.w3.org/1999/xlink" width="223.4375" height="200"><defs><style type="text/css"></style></defs><path d="M1116.17664 1024H28.131464A28.190118 28.190118 0 0 1 0.001581 995.568941V130.319059C0.001581 51.952941 44.30464 0 135.530993 0h406.588235c89.539765 0 150.588235 57.148235 150.588236 135.529412v90.352941h331.294117c74.300235 0 120.470588 44.363294 120.470588 117.594353v652.092235A28.431059 28.431059 0 0 1 1116.17664 1024zM271.060405 963.764706h165.647059V737.882353c0-15.691294-14.742588-30.117647-30.117648-30.117647h-105.411764c-15.375059 0-30.117647 14.426353-30.117647 30.117647v225.882353zM632.472169 135.529412c0-46.998588-43.836235-75.294118-90.352941-75.294118H135.530993C89.014287 60.235294 60.236875 88.530824 60.236875 135.529412v828.235294h150.784L210.825111 707.764706c0-30.388706 29.650824-60.235294 75.294117-60.235294h135.529412c42.390588 0 75.294118 30.644706 75.294118 75.294117l0.090353 240.941177H632.472169V135.529412z m451.764706 210.823529c0-36.246588-23.055059-60.235294-60.235294-60.235294H692.707464v677.647059h391.529411V346.352941z m-287.277176 75.158588h168.282353c15.992471 0 28.822588 13.447529 28.822588 30.208 0 16.760471-12.995765 30.208-28.822588 30.208H796.959699c-16.007529 0-28.837647-13.447529-28.837647-30.208 0-16.760471 12.830118-30.208 28.837647-30.208z m0 150.964706h168.282353c15.992471 0 28.822588 13.402353 28.822588 30.102589 0 16.715294-12.995765 30.102588-28.822588 30.102588H796.959699c-16.007529 0-28.837647-13.387294-28.837647-30.102588 0-16.700235 12.830118-30.102588 28.837647-30.102589z m0 150.512941h168.282353c15.992471 0 28.822588 13.402353 28.822588 30.102589-0.165647 16.700235-12.995765 30.102588-28.822588 30.102588H796.959699c-16.007529 0-28.837647-13.402353-28.837647-30.102588 0-16.534588 12.830118-30.102588 28.837647-30.102589zM468.511699 482.002824h-244.10353c-15.811765 0-28.476235-13.432471-28.476235-30.192942 0-16.594824 12.664471-30.208 28.476235-30.208h244.10353c15.796706 0 28.476235 13.447529 28.476235 30.208 0 16.760471-12.679529 30.192941-28.476235 30.192942z m0-196.096h-244.10353c-15.811765 0-28.476235-13.402353-28.476235-30.102589 0-16.534588 12.664471-30.117647 28.476235-30.117647h244.10353c15.796706 0 28.476235 13.402353 28.476235 30.117647 0 16.700235-12.679529 30.102588-28.476235 30.102589z" fill="#FFFFFF" p-id="2654"></path></svg>