<svg 
 xmlns="http://www.w3.org/2000/svg"
 xmlns:xlink="http://www.w3.org/1999/xlink"
 width="71px" height="74px">
<path fill-rule="evenodd"  stroke="rgb(204, 204, 204)" stroke-width="4px" stroke-linecap="round" stroke-linejoin="round" fill="none"
 d="M64.964,67.971 C64.182,64.740 62.419,58.110 60.693,56.229 C57.571,52.833 41.972,53.137 41.184,47.235 C41.022,46.029 40.946,43.580 40.944,42.427 L41.019,42.427 C42.818,40.950 44.311,38.851 44.652,38.281 C45.050,37.608 45.869,35.729 46.494,33.391 C47.530,33.269 48.474,31.393 49.164,29.322 C49.846,27.280 49.435,25.455 48.547,24.890 C49.510,21.757 49.397,18.743 48.656,15.313 C48.369,13.994 47.844,11.845 45.691,10.152 C45.285,8.232 44.165,6.265 41.474,4.937 C34.941,1.717 26.464,8.443 23.594,4.237 C20.245,8.017 22.092,11.487 21.292,13.209 C19.523,17.009 20.129,21.828 20.848,24.783 C19.796,25.142 19.233,27.093 19.977,29.322 C20.670,31.391 21.611,33.269 22.650,33.391 C23.275,35.729 24.092,37.608 24.489,38.281 C24.811,38.816 26.139,40.686 27.784,42.136 C27.843,42.817 27.778,45.627 27.562,47.232 C26.775,53.137 11.283,52.936 8.054,56.226 C6.187,58.135 5.005,63.730 5.005,63.730 L4.026,67.968 L64.964,67.968 L64.964,67.971 M64.964,67.971 L64.964,67.971 Z"/>
</svg>